<svg height='100px' width='100px'  fill="#ffffff" xmlns="http://www.w3.org/2000/svg" xmlns:xlink="http://www.w3.org/1999/xlink" version="1.1" x="0px" y="0px" viewBox="0 0 100 100" enable-background="new 0 0 100 100" xml:space="preserve"><g><path d="M67.212,27.247c-3.724,0-7.906,0.906-12.424,2.692c-0.417,0.165-0.854,0.355-1.3,0.552c-0.5,0.22-1.024,0.443-1.538,0.64   c-0.425-5.624-1.459-13.41-3.976-16.513c-1.894-0.964-5.097,1.86-4.753,2.964c0.266,0.705,4.254,4.035,5.552,13.793   c-0.728-0.221-1.521-0.558-2.263-0.884c-0.448-0.196-0.885-0.387-1.301-0.552c-4.518-1.786-8.698-2.692-12.423-2.692   c-12.988,0-20.741,11.004-20.741,29.436C12.046,73.059,26.674,95,41.634,95c2.899,0,5.708-0.808,8.355-2.4   c2.554,1.593,5.289,2.4,8.143,2.4c0,0,0,0,0.002,0c6.938,0,14.459-4.875,20.634-13.372c5.668-7.797,9.187-17.355,9.187-24.945   C87.954,38.251,80.201,27.247,67.212,27.247z"></path><path d="M54.854,24.452c0.187,0.024,1.186,0.141,2.646,0.141c2.958,0,8.524-0.505,12.546-3.878   c5.954-4.997,6.317-14.245,6.317-14.319c0.027-0.631-0.426-1.17-1.047-1.252C75.308,5.143,74.251,5,72.653,5   c-2.958,0-8.519,0.504-12.54,3.879c-5.789,4.857-6.3,13.924-6.321,14.331c-0.008,0.302,0.096,0.593,0.287,0.82   C54.268,24.254,54.532,24.402,54.854,24.452z"></path></g></svg>