<svg height='100px' width='100px'  fill="#ffffff" xmlns:x="http://ns.adobe.com/Extensibility/1.0/" xmlns:i="http://ns.adobe.com/AdobeIllustrator/10.0/" xmlns:graph="http://ns.adobe.com/Graphs/1.0/" xmlns="http://www.w3.org/2000/svg" xmlns:xlink="http://www.w3.org/1999/xlink" version="1.1" x="0px" y="0px" viewBox="0 0 100 100" style="enable-background:new 0 0 100 100;" xml:space="preserve"><g><g i:extraneous="self"><g><path d="M95.7,63.5c-1.1-4.5-6.3-6.7-10.7-8.6c0.6-3.1,0.7-6,0.5-9.2c2.5-1.4,4.9-2.9,7.4-4.3c1.9-1.1,2.6-3.7,1.5-5.6     c-3.2-5.3-6-10.7-8.5-16.3c-1-2.1-3.7-2.3-5.6-1.5c-2.6,1.2-6.2,3.4-9.1,3.7c0,0-0.1,0-0.1,0c-0.4-0.2-0.9-0.5-1.6-0.8     c-2.1-0.9-3.9-2.3-6-3.4c-0.2-3.8-1-7.7-1.7-11.4c-0.3-1.7-2.3-3-3.9-3c-4.5,0-13.7-1.9-17.5,0.6c-4,2.6-3.8,9.5-4.4,14.3     c-2.5,1.1-4.6,2.9-6.9,4.1c-0.6-0.2-1.6-0.5-2.7-1.4c-1.5-1.2-4.7-3.3-6.7-3.6C11.3,16,8.4,28.4,5.2,34.6c-1.1,2-0.5,4.3,1.5,5.6     c4.4,2.8,10.3,7.1,7.7,13.3c-1.4,3.5-6.1,4.4-9.1,7.1c-1,0.9-1.5,2.7-1,4c2.3,5.9,6.4,11.3,9.9,16.5c1.2,1.9,3.5,2.6,5.6,1.5     c3.2-1.8,8.6-4,9.8-3.7c2.4,0.5,4.8,2.3,7.4,3.6c-0.3,4-0.4,8.2,1.2,11.9c0.6,1.4,2.2,1.9,3.5,2c5.7,0.6,11.5,0.5,17.2,1.1     c1.6,0.2,3.7-1.4,3.9-3c0.6-4,1-7.9,1.4-11.9c2.5-1,4.7-2.3,6.8-4c3,2,6,3.9,9,5.7c1.8,1.1,4.5,0.5,5.6-1.5     C88.5,77.7,97.3,70.1,95.7,63.5z M85.7,68.1c-0.5,2.3-2.8,4.9-4.7,7.3c-2.8-1.7-5.5-3.5-8.2-5.3c-1.5-1-3.7-0.5-4.9,0.6     c-2.4,2.4-5.2,4.1-8.5,5c-1.9,0.6-2.8,2.1-3,3.9c-0.3,3.2-0.7,6.4-1.1,9.6c-3.6,0.1-7.8,0.3-10.5-0.6c0.1-0.2,0.2-0.6,0.2-1.2     c-0.1-2.5,0-5.1,0.2-7.6c0.1-1.8-1.3-3.5-3-3.9c-5-1.4-8-5.6-12.9-5.9c-2.9-0.2-7.2,1.9-10.6,3.7c-2-2.6-4.6-6.1-5.5-8.3     c-0.2-0.5,0.1-0.9,0.6-1.1c2.1-0.6,7.2-4.3,8.2-5.2c1.1-0.9,1.4-2.7,1-4c-1.3-4.8,0.6-10.1-1.6-14.3c-1.2-2.2-4.5-4.2-7.4-5.9     c1-2,2.1-4,3.2-6c0.5-0.9,1.6-2.2,2.2-3.3c1.7,1.5,5.9,3.8,7,4.6c1.1,0.7,3,0.8,4.1,0c3.1-2.3,6.3-4.7,10.1-5.4     c0.5-0.1,1-0.3,1.4-0.6c1-0.6,1.5-1.6,1.5-2.7c0.3-1.4,0.4-2.8,0.7-4.2c0.2-2.1,0.5-4.3,0.9-6.4c2.3-0.6,6.1-0.3,9.3,0     c0.6,3,1.1,6.1,1,9.2c-0.1,1.8,1.3,3.4,3,3.9c3.1,0.9,6.2,2.8,8.1,5.3c0.8,1.1,2.7,1.5,4,1c3.3-1.1,6.6-2.4,9.8-3.8     c1.5,3.2,3.7,6.9,5.5,10c-2.8,2-8.8,4.5-8.4,7.4c-0.3,3.8-0.7,8.1-1,11.9c-0.5,1.7,0.3,3.8,1.9,4.6     C82.2,62.8,86.8,63.6,85.7,68.1z"></path><path d="M51.8,33.4c-9.3-0.6-19.4,3-19.4,13.7c0,10.1,6.2,18.4,16.4,19.9c10.6,1.5,17.9-4.3,18.8-15.1     C68.3,42.7,61.5,33.4,51.8,33.4z M59.3,52.5c-0.3,1.6-1.1,4.5-2.4,5.6c-1.9,1.7-6.5,1.2-8.7,0.5c-4.9-1.5-7.6-5.7-7.6-10.7     c0-6.5,6.1-6.7,11.2-6.4C57.4,41.5,60.2,47.6,59.3,52.5z"></path></g></g></g></svg>