<svg height='100px' width='100px'  fill="#ffffff" xmlns="http://www.w3.org/2000/svg" xmlns:xlink="http://www.w3.org/1999/xlink" version="1.1" x="0px" y="0px" viewBox="0 0 100 100" enable-background="new 0 0 100 100" xml:space="preserve"><g><path d="M39.572,90.4c0,0,3.121-18.919-1.393-17.356c0,0-11.108,1.734-11.974-1.216c0,0-0.695-1.909,0.174-5.208   c0,0,0.691-2.604-1.563-3.124c0,0-1.563-1.389,0.348-2.429c0,0-1.911-1.39-0.696-3.299c0,0,2.257-3.646-0.694-4.167   c0,0-6.595-0.521-3.126-3.991c0,0,7.294-9.72,6.423-11.63c0,0-2.083-1.042,0.348-4.687c0,0,1.043-20.482,24.648-21.178   c0,0,19.617-1.386,26.037,16.838c0,0,5.036,10.589-4.513,24.648c0,0-9.025,9.895-6.771,19.963c0,0,3.994,14.407,3.645,16.835   H39.572z"></path></g></svg>