<svg height='100px' width='100px'  fill="#ffffff" xmlns="http://www.w3.org/2000/svg" data-name="Camada 1" viewBox="0 0 100 100" x="0px" y="0px"><title>Head</title><path d="M90.00746,29.26881A34.88779,34.88779,0,0,0,74.07582,5.86842a37.37219,37.37219,0,0,0-29.55859-4.6416C30.31215,5.00807,20.112,17.99049,18.52992,34.301a64.96731,64.96731,0,0,1-3.94726,17.17773L9.38734,64.90846H19.609l4.709,22.375H41.62758L41.62343,100h6l.00293-13.09887a29.9092,29.9092,0,0,0,13.958-6.16938,2.99971,2.99971,0,0,0-3.73414-4.69549,23.79,23.79,0,0,1-14.83789,5.24719H29.18715l-4.709-22.375H18.14125l2.03711-5.26465a70.98387,70.98387,0,0,0,4.32422-18.76465c1.0957-11.2998,8.18652-24.29492,21.55762-27.85351A31.33973,31.33973,0,0,1,70.85707,10.9319,28.95083,28.95083,0,0,1,84.10316,30.33326c1.40528,7.79493-.32226,15.55372-2.15039,23.76856-.69433,3.11621-1.41113,6.33887-1.93261,9.53613a125.42435,125.42435,0,0,0-1.43555,27.94239l.06055.96484,5.98828-.375-.06055-.96387A119.40351,119.40351,0,0,1,85.942,64.6028c.49317-3.02637,1.16016-6.02442,1.86719-9.19727C89.68617,46.97291,91.62758,38.25319,90.00746,29.26881Z"></path></svg>