<svg height='100px' width='100px'  fill="#ffffff" xmlns="http://www.w3.org/2000/svg" xmlns:xlink="http://www.w3.org/1999/xlink" version="1.1" x="0px" y="0px" viewBox="0 0 300 300" style="enable-background:new 0 0 300 300;" xml:space="preserve"><path d="M188.1,208.1h25v3.8c0,27.3-22.2,49.4-49.4,49.4s-49.4-22.2-49.4-49.5l-0.5-122c15.3-4.9,26.5-19.3,26.5-36.2  c0-21-17.1-38.1-38.1-38.1c-21,0-38.1,17.1-38.1,38.1c0,17,11.2,31.4,26.6,36.3l0.5,121.9c0,39.9,32.5,72.4,72.4,72.4  c39.9,0,72.4-32.5,72.4-72.4v-3.8v-42.5V123L188.1,208.1z M102,38.6c8.3,0,15.1,6.8,15.1,15.1s-6.8,15.1-15.1,15.1S87,62,87,53.7  S93.7,38.6,102,38.6z"></path></svg>