<svg height='100px' width='100px'  fill="#000000" xmlns="http://www.w3.org/2000/svg" xmlns:xlink="http://www.w3.org/1999/xlink" version="1.1" x="0px" y="0px" viewBox="0 0 100 100" enable-background="new 0 0 100 100" xml:space="preserve"><g><path d="M38.635,37.071h24.294V12.383c0-0.863-0.7-1.563-1.564-1.563h-48.98c-0.864,0-1.563,0.7-1.563,1.563v48.982   c0,0.864,0.699,1.563,1.563,1.563H37.07V38.634C37.07,37.771,37.771,37.071,38.635,37.071z"></path><path d="M87.615,37.071H62.929v24.294c0,0.864-0.7,1.563-1.564,1.563H37.07v24.688c0,0.863,0.7,1.563,1.564,1.563h48.98   c0.863,0,1.564-0.7,1.564-1.563V38.634C89.18,37.771,88.479,37.071,87.615,37.071z"></path></g></svg>