<svg height='100px' width='100px'  fill="#000000" xmlns="http://www.w3.org/2000/svg" xmlns:xlink="http://www.w3.org/1999/xlink" version="1.1" baseProfile="basic" x="0px" y="0px" viewBox="0 0 90 90" xml:space="preserve"><path d="M81.039,21.623h-6.922c-3.069,0-5.888-1.704-7.335-4.432l-1.472-2.777c-1.814-3.421-5.349-5.557-9.197-5.557H34.91  c-3.848,0-7.383,2.136-9.197,5.557l-0.464,0.876l-1.008,1.901c-0.983,1.854-2.6,3.235-4.499,3.93  c-0.895,0.328-1.853,0.502-2.836,0.502H8.961C4.012,21.623,0,25.668,0,30.657v41.452c0,4.989,4.012,9.034,8.961,9.034h72.079  c1.835,0,3.541-0.556,4.962-1.51C88.412,78.014,90,75.249,90,72.109V30.657C90,25.668,85.988,21.623,81.039,21.623z M63.806,57.253  c-1.028,2.588-2.565,4.914-4.488,6.852C55.654,67.8,50.592,70.085,45,70.085c-11.183,0-20.249-9.14-20.249-20.415  c0-5.637,2.266-10.741,5.931-14.435c1.923-1.938,4.23-3.489,6.797-4.525c2.325-0.938,4.863-1.455,7.521-1.455  c11.183,0,20.249,9.14,20.249,20.415C65.249,52.35,64.737,54.909,63.806,57.253z"></path></svg>